<svg xmlns="http://www.w3.org/2000/svg" width="32" height="32" viewBox="0 0 32 32"><defs><style>.a,.b{fill:none;}.b{stroke:#000;stroke-linecap:round;stroke-miterlimit:10;stroke-width:1.5px;}</style></defs><g transform="translate(-0.114 -0.114)"><rect class="a" width="32" height="32" transform="translate(0.114 0.114)"/><g transform="translate(5.439 2.115)"><path class="b" d="M27.519,39.149H15.433A4.653,4.653,0,0,1,10.8,34.516V28.674A10.531,10.531,0,0,1,21.274,18.2h.453A10.531,10.531,0,0,1,32.2,28.674v5.791A4.707,4.707,0,0,1,27.519,39.149Z" transform="translate(-10.8 -11.15)"/><path class="b" d="M17.9,19.106C17.9,10.847,21.123,4.2,25.1,4.2s7.2,6.7,7.2,14.906" transform="translate(-14.325 -4.2)"/></g></g></svg>