<svg xmlns="http://www.w3.org/2000/svg" width="32" height="32" viewBox="0 0 32 32"><defs><style>.a,.b{fill:none;}.b{stroke:#000;stroke-linecap:round;stroke-miterlimit:10;stroke-width:1.5px;}</style></defs><g transform="translate(0.136 0.136)"><rect class="a" width="32" height="32" transform="translate(-0.136 -0.136)"/><path class="b" d="M17.9,31.68s10.51-5.85,13.088-12.791a12.637,12.637,0,0,0,.644-2.528v-.149a9.753,9.753,0,0,0,.05-2.082,8.792,8.792,0,0,0-2.429-5.6.684.684,0,0,1-.149-.2,11.76,11.76,0,0,0-1.487-1.14A7.172,7.172,0,0,0,24.889,6.1,7.4,7.4,0,0,0,23.848,6a6.933,6.933,0,0,0-5.9,3.272h-.1a7.077,7.077,0,0,0-5.9-3.173,7.4,7.4,0,0,0-1.041.1A7.687,7.687,0,0,0,8.182,7.289a8.447,8.447,0,0,0-1.487,1.14.684.684,0,0,0-.2.149,8.439,8.439,0,0,0-2.429,5.6,9.368,9.368,0,0,0,.05,2.033v.149a13.543,13.543,0,0,0,.644,2.528C7.388,25.83,17.9,31.68,17.9,31.68Z" transform="translate(-2.034 -3.025)"/></g></svg>