<svg xmlns="http://www.w3.org/2000/svg" width="24" height="24" viewBox="0 0 24 24"><defs><style>.a,.b{fill:none;}.a{stroke:#000;stroke-linecap:round;stroke-miterlimit:10;stroke-width:1.5px;}</style></defs><g transform="translate(0 0.266)"><g transform="translate(4.636 1.669)"><path class="a" d="M25.665,24.9H13.8a1.314,1.314,0,0,1-1.3-1.3V5.8a1.314,1.314,0,0,1,1.3-1.3H25.665a1.314,1.314,0,0,1,1.3,1.3V23.6A1.314,1.314,0,0,1,25.665,24.9Z" transform="translate(-12.5 -4.5)"/><path d="M26.63,18.312H20.882a.491.491,0,0,1-.482-.482V12.082a.491.491,0,0,1,.482-.482H26.63a.491.491,0,0,1,.482.482V17.83A.518.518,0,0,1,26.63,18.312Z" transform="translate(-17.47 -8.967)"/><line class="a" x2="8.604" transform="translate(2.93 12.127)"/><line class="a" x2="8.01" transform="translate(2.93 14.945)"/><line class="a" x2="5.34" transform="translate(2.93 17.727)"/></g><rect class="b" width="24" height="24" transform="translate(0 -0.266)"/></g></svg>