<svg xmlns="http://www.w3.org/2000/svg" width="55.478" height="47.313" viewBox="0 0 55.478 47.313"><defs><style>.a{fill:#007377;}</style></defs><path class="a" d="M29.294.071a54.443,54.443,0,0,0-16.252,1.42c-4.9,1.339-8.508,3.593-10.73,6.7A12.315,12.315,0,0,0,0,15.28v.033a11.235,11.235,0,1,0,22.47-.033h-.01A6.813,6.813,0,0,0,9.332,12.729c-.007.018-.015.036-.023.055s0,.009,0,.012a6.982,6.982,0,0,0-.5,2.567,3.158,3.158,0,0,0,.589,2.11,1.7,1.7,0,0,0,1.349.676,1.307,1.307,0,0,0,.981-.38,1.389,1.389,0,0,0,.4-1,1.632,1.632,0,0,0-.579-1.259l-.712-.668a2.8,2.8,0,0,1-.479-.6,1.734,1.734,0,0,1-.019-1.42,5.433,5.433,0,0,1,2.551-2.759,5.915,5.915,0,0,1,8.68,5.232h.009a10.34,10.34,0,1,1-20.68.008A11.428,11.428,0,0,1,3.034,8.707c2.1-2.934,5.543-5.073,10.237-6.358A53.639,53.639,0,0,1,29.252.959l.042-.888" transform="translate(0 -0.003)"/><path class="a" d="M248.876,0V10.061h-.082a20.1,20.1,0,0,0-2.223-7.681,3.914,3.914,0,0,0-1.363-1.35A4.606,4.606,0,0,0,243.3.454c-.114-.009-.227-.017-.354-.024h-7.783c-.193,0-.376.011-.552.019-.729.035-1.885.182-1.885.182a4.9,4.9,0,0,0-1.853.6,4.883,4.883,0,0,0-1.066.947,5.46,5.46,0,0,0-.946,2.993V22.408h7.548a1.469,1.469,0,0,0,.492-.064h0c3.759-1.261,5.265-5.9,5.729-7.778h.173v16.1h-.174c-.469-1.894-1.99-6.561-5.791-7.79a1.865,1.865,0,0,0-.4-.044h-7.58V40.989a11.426,11.426,0,0,0,.3,2.641c.359,1.511,1.073,3.127,2.5,3.569v.114H218.5V47.2c1.424-.442,2.138-2.057,2.5-3.569a11.471,11.471,0,0,0,.3-2.641V6.419s-.01-1.006-.01-1.022.246-3.435-1.938-4.829A3.244,3.244,0,0,0,218.819.3a3.462,3.462,0,0,0-.352-.125c-.1-.03-.2-.055-.3-.076V0Z" transform="translate(-193.398)"/></svg>