<svg xmlns="http://www.w3.org/2000/svg" width="20.503" height="20.503" viewBox="0 0 20.503 20.503"><defs><style>.a{fill:#007377;}</style></defs><g transform="translate(-446 -2555.002)"><path class="a" d="M132.444,64.135a1.232,1.232,0,1,0-1.232,1.229,1.232,1.232,0,0,0,1.232-1.229" transform="translate(330.473 2495.395)"/><path class="a" d="M59.775,55.573a5.731,5.731,0,0,1-.348,1.9,3.185,3.185,0,0,1-.77,1.178,3.135,3.135,0,0,1-1.177.765,5.712,5.712,0,0,1-1.906.356c-1.08.047-1.4.059-4.142.059s-3.06-.011-4.142-.059a5.694,5.694,0,0,1-1.9-.349,3.4,3.4,0,0,1-1.958-1.95,5.646,5.646,0,0,1-.351-1.9c-.052-1.08-.062-1.405-.062-4.14s.01-3.063.062-4.145a5.687,5.687,0,0,1,.351-1.906,3.128,3.128,0,0,1,.769-1.177,3.2,3.2,0,0,1,1.19-.77,5.749,5.749,0,0,1,1.9-.354c1.082-.047,1.4-.059,4.142-.059s3.061.011,4.142.059a5.764,5.764,0,0,1,1.9.354,3.427,3.427,0,0,1,1.95,1.947,5.774,5.774,0,0,1,.351,1.906c.051,1.082.062,1.4.062,4.145s-.011,3.06-.062,4.14ZM61.621,47.2a7.445,7.445,0,0,0-.478-2.489,5.222,5.222,0,0,0-3-3,7.471,7.471,0,0,0-2.489-.475c-1.093-.052-1.443-.062-4.228-.062s-3.135.01-4.227.062a7.506,7.506,0,0,0-2.49.475,5.255,5.255,0,0,0-3,3,7.613,7.613,0,0,0-.478,2.489c-.047,1.093-.059,1.443-.059,4.228s.011,3.132.059,4.225a7.649,7.649,0,0,0,.478,2.489,5.279,5.279,0,0,0,3,3,7.593,7.593,0,0,0,2.49.475c1.092.051,1.444.062,4.227.062s3.135-.011,4.228-.062a7.556,7.556,0,0,0,2.489-.475,5.049,5.049,0,0,0,1.815-1.185,4.967,4.967,0,0,0,1.181-1.815,7.481,7.481,0,0,0,.478-2.489c.051-1.093.062-1.443.062-4.225s-.011-3.135-.062-4.228Z" transform="translate(404.82 2513.822)"/><path class="a" d="M76.988,80.412a3.415,3.415,0,1,1,2.422-1A3.417,3.417,0,0,1,76.988,80.412Zm0-8.682A5.266,5.266,0,1,0,82.252,77a5.266,5.266,0,0,0-5.264-5.265Z" transform="translate(379.225 2488.004)"/></g></svg>