<svg xmlns="http://www.w3.org/2000/svg" width="16" height="16" viewBox="0 0 16 16"><defs><style>.a,.b{fill:none;}.b{stroke:#000;stroke-linecap:round;stroke-miterlimit:10;stroke-width:1.5px;}</style></defs><g transform="translate(-0.114 -0.113)"><rect class="a" width="16" height="16" transform="translate(0.114 0.113)"/><g transform="translate(2.776 1.115)"><path class="b" d="M19.159,28.674H13.116A2.326,2.326,0,0,1,10.8,26.357V23.437A5.265,5.265,0,0,1,16.037,18.2h.227A5.265,5.265,0,0,1,21.5,23.437v2.9A2.353,2.353,0,0,1,19.159,28.674Z" transform="translate(-10.8 -14.675)"/><path class="b" d="M17.9,11.652c0-4.129,1.611-7.452,3.6-7.452s3.6,3.349,3.6,7.452" transform="translate(-16.112 -4.2)"/></g></g></svg>