<svg xmlns="http://www.w3.org/2000/svg" width="16" height="16" viewBox="0 0 16 16"><defs><style>.a,.b{fill:none;}.b{stroke:#000;stroke-linecap:round;stroke-miterlimit:10;stroke-width:1.5px;}</style></defs><g transform="translate(0.136 0.137)"><rect class="a" width="16" height="16" transform="translate(-0.136 -0.137)"/><path class="b" d="M10.966,18.839s5.255-2.925,6.544-6.395a6.318,6.318,0,0,0,.322-1.264v-.074a4.876,4.876,0,0,0,.025-1.041,4.4,4.4,0,0,0-1.215-2.8.342.342,0,0,1-.074-.1,5.88,5.88,0,0,0-.744-.57,3.586,3.586,0,0,0-1.363-.545A3.7,3.7,0,0,0,13.94,6a3.466,3.466,0,0,0-2.95,1.636h-.05A3.538,3.538,0,0,0,7.992,6.05a3.7,3.7,0,0,0-.521.05,3.843,3.843,0,0,0-1.363.545,4.223,4.223,0,0,0-.744.57.342.342,0,0,0-.1.074,4.219,4.219,0,0,0-1.215,2.8,4.684,4.684,0,0,0,.025,1.016v.074A6.771,6.771,0,0,0,4.4,12.444c1.314,3.47,6.568,6.395,6.568,6.395Z" transform="translate(-3.102 -4.581)"/></g></svg>